<!--?xml version="1.0" standalone="no"?-->
              <svg id="sw-js-blob-svg" viewBox="0 0 100 100" xmlns="http://www.w3.org/2000/svg" version="1.1">
                    <defs> 
                        <linearGradient id="sw-gradient" x1="0" x2="1" y1="1" y2="0">
                            <stop id="stop1" stop-color="rgba(255, 248.099, 244.832, 1)" offset="0%"></stop>
                            <stop id="stop2" stop-color="rgba(220.358, 228.597, 255, 1)" offset="100%"></stop>
                        </linearGradient>
                    </defs>
                <path fill="url(#sw-gradient)" d="M22,-31.4C27.4,-26.3,30.1,-18.4,33.7,-10.2C37.4,-2,42,6.6,40.1,13.2C38.1,19.7,29.6,24.3,21.8,28.8C14,33.3,7,37.8,-0.1,37.8C-7.1,37.9,-14.2,33.6,-21,28.8C-27.8,24,-34.2,18.6,-38.1,11.3C-42.1,3.9,-43.5,-5.3,-41,-13.4C-38.5,-21.4,-32,-28.3,-24.5,-32.8C-17,-37.3,-8.5,-39.5,-0.1,-39.3C8.3,-39.2,16.5,-36.6,22,-31.4Z" width="100%" height="100%" transform="translate(50 50)" stroke-width="0" style="transition: all 0.3s ease 0s;" stroke="url(#sw-gradient)"></path>
              </svg>