<!--?xml version="1.0" standalone="no"?-->
              <svg id="sw-js-blob-svg" viewBox="0 0 100 100" xmlns="http://www.w3.org/2000/svg" version="1.1">
                    <defs> 
                        <linearGradient id="sw-gradient" x1="0" x2="1" y1="1" y2="0">
                            <stop id="stop1" stop-color="rgba(255, 248.099, 244.832, 1)" offset="0%"></stop>
                            <stop id="stop2" stop-color="rgba(220.358, 228.597, 255, 1)" offset="100%"></stop>
                        </linearGradient>
                    </defs>
                <path fill="url(#sw-gradient)" d="M25.7,-35.4C32.2,-30.6,35.7,-21.7,33.5,-14.2C31.4,-6.7,23.7,-0.8,19.6,4.6C15.5,10,14.9,14.9,12.2,17.7C9.5,20.5,4.8,21.4,-2,24.1C-8.7,26.8,-17.3,31.3,-23.9,29.7C-30.5,28.1,-35,20.5,-33.4,13.6C-31.8,6.8,-24.1,0.7,-18.9,-3.4C-13.8,-7.6,-11.3,-9.8,-8.6,-15.8C-5.8,-21.8,-2.9,-31.6,3.3,-36.2C9.6,-40.7,19.2,-40.2,25.7,-35.4Z" width="100%" height="100%" transform="translate(50 50)" stroke-width="0" style="transition: all 0.3s ease 0s;" stroke="url(#sw-gradient)"></path>
              </svg>